<svg width="226" height="30" viewBox="0 0 226 30" fill="none" xmlns="http://www.w3.org/2000/svg">
<path d="M5.13766 23.5095H0V0.561306H5.13766V8.54181H5.48017C6.64471 7.03476 8.66552 5.87022 11.3714 5.87022C16.1665 5.87022 19.2491 8.54181 19.2491 14.159V23.5095H14.1114V14.9125C14.1114 11.7272 13.1867 10.2544 10.0013 10.2544C7.05572 10.2544 5.13766 11.8642 5.13766 14.9468V23.5095Z" fill="black"/>
<path d="M25.7525 12.9259H20.6834C21.0259 8.43905 24.314 5.80172 30.2052 5.80172C36.4046 5.80172 39.59 8.23355 39.59 13.1314V23.5095H34.8633L34.5208 21.3517H34.1783C32.774 22.9958 30.6162 24.0233 27.8076 24.0233C23.8687 24.0233 21.1971 22.1052 21.1971 18.8514C21.1971 15.4263 24.3825 13.4055 29.3831 13.4055C31.1642 13.4055 32.911 13.611 34.4523 13.9192V13.0972C34.4523 10.8709 33.4248 9.91185 30.2052 9.91185C27.2596 9.91185 25.958 10.9051 25.7525 12.9259ZM26.4033 18.3376C26.4033 19.4679 27.5336 19.9132 29.2461 19.9132C31.8835 19.9132 34.007 18.8514 34.5893 17.1046C33.048 16.8306 31.3012 16.6936 29.7256 16.6936C27.5336 16.6936 26.4033 17.2416 26.4033 18.3376Z" fill="black"/>
<path d="M41.1845 14.9468C41.1845 9.56934 45.3974 5.87022 51.4256 5.87022C57.0085 5.87022 61.1186 9.15832 61.5296 13.885H56.255C55.9125 11.5559 54.1657 10.1859 51.4256 10.1859C48.2402 10.1859 46.4592 11.9327 46.4592 14.9468C46.4592 17.9609 48.2402 19.7077 51.4256 19.7077C54.3027 19.7077 56.0837 18.2691 56.3577 15.8715H61.6324C61.2899 20.7009 57.1455 24.0233 51.4256 24.0233C45.3974 24.0233 41.1845 20.3242 41.1845 14.9468Z" fill="black"/>
<path d="M68.4687 23.5095H63.331V0.561306H68.4687V11.9327H68.8112L74.5996 6.38399H81.5869L73.2296 13.9192L82.3404 23.5095H75.4902L68.8112 16.0428H68.4687V23.5095Z" fill="black"/>
<path d="M86.1067 12.9259H81.0375C81.38 8.43905 84.6681 5.80172 90.5593 5.80172C96.7587 5.80172 99.9441 8.23355 99.9441 13.1314V23.5095H95.2174L94.8749 21.3517H94.5324C93.1281 22.9958 90.9703 24.0233 88.1617 24.0233C84.2229 24.0233 81.5513 22.1052 81.5513 18.8514C81.5513 15.4263 84.7366 13.4055 89.7373 13.4055C91.5183 13.4055 93.2651 13.611 94.8064 13.9192V13.0972C94.8064 10.8709 93.7789 9.91185 90.5593 9.91185C87.6137 9.91185 86.3122 10.9051 86.1067 12.9259ZM86.7574 18.3376C86.7574 19.4679 87.8877 19.9132 89.6003 19.9132C92.2376 19.9132 94.3612 18.8514 94.9434 17.1046C93.4021 16.8306 91.6553 16.6936 90.0798 16.6936C87.8877 16.6936 86.7574 17.2416 86.7574 18.3376Z" fill="black"/>
<path d="M121.952 0.561306V23.5095H117.226L116.883 21.4202H116.541C115.376 22.893 113.253 24.0233 110.41 24.0233C105.443 24.0233 101.539 20.3584 101.539 14.9468C101.539 9.53509 105.443 5.87022 110.41 5.87022C113.253 5.87022 115.308 7.00051 116.472 8.4733H116.815V0.561306H121.952ZM116.917 14.9468C116.917 12.1382 115.102 10.1859 111.848 10.1859C108.594 10.1859 106.779 11.9327 106.779 14.9468C106.779 17.9609 108.594 19.7077 111.848 19.7077C115.102 19.7077 116.917 17.7553 116.917 14.9468Z" fill="black"/>
<path d="M123.675 14.9468C123.675 9.53509 127.853 5.87022 133.847 5.87022C140.149 5.87022 144.362 9.8091 143.849 16.1113H128.949C129.326 18.3376 131.21 19.7762 133.882 19.7762C136.245 19.7762 137.82 18.8171 138.505 17.2416H143.951C142.992 21.3175 139.156 24.0233 133.882 24.0233C127.819 24.0233 123.675 20.3584 123.675 14.9468ZM129.086 12.8232H138.334C137.992 11.1106 136.279 10.0489 133.916 10.0489C131.552 10.0489 129.429 11.1106 129.086 12.8232Z" fill="black"/>
<path d="M150.792 23.5095H145.654V6.38399H150.381L150.723 8.54181H151.066C152.23 7.06901 153.84 5.87022 156.443 5.87022C159.183 5.87022 160.999 7.17176 162.3 8.91857H162.643C163.978 7.17176 165.999 5.87022 169.013 5.87022C173.466 5.87022 175.932 8.91857 175.932 13.0972V23.5095H170.794V14.57C170.794 11.7272 170.007 10.3229 167.438 10.3229C164.869 10.3229 163.362 12.1382 163.362 14.6727V23.5095H158.224V14.57C158.224 11.7272 157.436 10.3229 154.868 10.3229C152.299 10.3229 150.792 12.2067 150.792 14.7412V23.5095Z" fill="black"/>
<path d="M183.13 6.38399V23.5095H177.992V6.38399H183.13Z" fill="black"/>
<path d="M184.832 14.9468C184.832 9.56934 189.045 5.87022 195.073 5.87022C200.656 5.87022 204.766 9.15832 205.177 13.885H199.902C199.56 11.5559 197.813 10.1859 195.073 10.1859C191.887 10.1859 190.106 11.9327 190.106 14.9468C190.106 17.9609 191.887 19.7077 195.073 19.7077C197.95 19.7077 199.731 18.2691 200.005 15.8715H205.28C204.937 20.7009 200.793 24.0233 195.073 24.0233C189.045 24.0233 184.832 20.3242 184.832 14.9468Z" fill="black"/>
<path d="M206.464 16.8991H211.636C212.116 19.0911 213.589 20.1187 216.329 20.1187C218.863 20.1187 219.788 19.5364 219.788 18.6116C219.788 17.8581 219.377 17.3443 217.904 17.1046L212.664 16.214C209.136 15.6318 206.944 14.0562 206.944 11.2819C206.944 7.78828 210.54 5.87022 215.507 5.87022C220.816 5.87022 224.275 8.4048 224.857 12.5834H219.685C219.24 10.6996 217.973 9.77484 215.507 9.77484C213.075 9.77484 212.219 10.2886 212.219 11.1449C212.219 11.8299 212.595 12.2067 213.931 12.4464L219.24 13.3712C222.973 14.022 225.063 15.7003 225.063 18.4746C225.063 22.1395 221.535 24.0233 216.329 24.0233C210.712 24.0233 207.184 21.4545 206.464 16.8991Z" fill="black"/>
<path d="M183.129 0V5.09878H177.991V0H183.129Z" fill="black"/>
<path d="M121.941 24.9012V30H116.804V24.9012H121.941Z" fill="#3E44F4"/>
<path d="M68.4614 24.9012V30H63.3237V24.9012H68.4614Z" fill="#47BC6D"/>
<path d="M5.13766 24.9012V30H0V24.9012H5.13766Z" fill="#E24B29"/>
</svg>
